<?xml version="1.0" encoding="UTF-8"?>
<svg xmlns="http://www.w3.org/2000/svg" viewBox="0 0 800 900" preserveAspectRatio="xMidYMid meet">
  <rect width="800" height="900" fill="#0a1a4a"/>
  <g transform="translate(140.00 110.00) scale(0.7471)">
    <path d="M383.50,396.89C373.70,395.47 357.92,391.22 348.78,387.53C326.18,378.42 312.12,369.66 296.66,355.07C294.00,352.56 291.38,350.62 290.83,350.77C290.29,350.93 290.12,350.62 290.44,350.09C290.77,349.57 290.03,348.43 288.79,347.57C287.56,346.71 286.92,346.00 287.36,346.00C287.81,346.00 286.33,343.91 284.08,341.35C281.82,338.79 277.89,333.50 275.33,329.60C272.77,325.69 270.41,322.27 270.09,322.00C269.77,321.73 267.64,317.90 265.37,313.50C259.27,301.69 252.61,283.86 250.06,272.50C244.71,248.73 243.93,245.80 242.04,242.24C239.17,236.85 237.28,234.71 236.08,235.45C235.49,235.82 235.23,235.53 235.48,234.80C235.74,234.09 234.85,232.70 233.51,231.73L231.07,229.96L233.53,235.23C236.09,240.74 236.72,245.00 234.97,245.00C234.40,245.00 233.68,244.33 233.36,243.50C233.05,242.68 229.78,239.82 226.11,237.15C222.44,234.48 217.05,229.97 214.14,227.14C211.23,224.30 208.43,222.23 207.93,222.54C207.43,222.85 207.24,222.52 207.49,221.80C207.75,221.09 205.50,217.88 202.49,214.67C199.48,211.46 196.08,207.52 194.93,205.91C193.79,204.30 192.36,203.28 191.77,203.64C191.15,204.02 190.98,203.84 191.37,203.22C191.74,202.62 190.19,199.29 187.92,195.81C178.58,181.48 168.83,159.05 162.14,136.50C155.47,113.98 151.68,105.60 142.00,92.00C134.69,81.72 127.38,73.75 119.51,67.48C116.76,65.29 113.39,62.49 112.02,61.25C110.64,60.01 109.21,59.00 108.83,59.00C108.45,59.00 107.55,58.41 106.82,57.69C104.18,55.09 97.65,51.10 96.83,51.60C96.37,51.89 96.00,51.72 96.00,51.22C96.00,48.69 61.32,33.06 46.46,28.89C37.89,26.49 19.14,25.66 11.75,27.36C7.13,28.42 6.82,27.01 10.52,21.57C11.90,19.53 12.73,17.37 12.36,16.78C11.95,16.12 12.16,15.98 12.88,16.43C13.60,16.87 15.65,15.58 18.04,13.20C20.22,11.02 22.00,9.44 22.00,9.69C22.00,9.93 23.33,9.19 24.96,8.03C32.51,2.65 51.22,-0.64 67.88,0.48C83.06,1.50 106.62,4.75 119.08,7.54C157.55,16.16 200.54,34.63 232.23,56.16C235.40,58.31 238.01,59.72 238.02,59.29C238.02,58.85 238.36,58.97 238.77,59.55C239.17,60.13 245.29,64.63 252.37,69.55C259.45,74.47 266.20,79.17 267.37,79.98C272.19,83.34 284.54,92.41 285.00,92.94C286.75,94.91 292.21,97.99 293.05,97.47C293.60,97.13 293.93,97.39 293.77,98.05C293.62,98.71 294.13,99.48 294.89,99.75C295.82,100.09 296.02,99.84 295.48,98.98C294.96,98.13 295.09,97.94 295.86,98.41C296.51,98.81 296.81,99.50 296.54,99.94C296.10,100.64 309.11,110.00 310.53,110.00C310.83,110.00 312.37,110.95 313.95,112.12C315.62,113.35 317.33,113.91 318.06,113.46C318.81,113.00 319.06,113.10 318.68,113.72C317.91,114.95 325.93,120.00 339.50,126.83C354.91,134.58 365.13,139.04 366.11,138.43C366.60,138.13 367.00,138.27 367.00,138.74C367.00,139.42 372.79,142.14 375.00,142.49C375.27,142.53 376.40,143.06 377.50,143.65C382.01,146.08 402.28,152.16 413.53,154.44C444.75,160.79 464.58,161.18 490.33,155.94C501.90,153.58 507.85,151.24 511.47,147.62C514.90,144.19 514.03,140.29 507.96,132.00C496.43,116.23 492.76,106.30 492.64,90.50C492.51,72.33 496.48,62.15 510.50,44.73C514.01,40.37 517.00,39.78 517.00,43.44C517.00,44.78 517.46,46.16 518.02,46.51C518.58,46.86 518.82,47.48 518.56,47.90C518.30,48.32 519.01,51.73 520.14,55.49C521.76,60.88 523.26,63.45 527.28,67.70C530.24,70.83 532.93,72.86 533.73,72.55C534.49,72.26 534.86,72.41 534.57,72.89C534.02,73.77 537.13,76.06 547.25,82.22C560.53,90.31 569.00,102.09 569.00,112.46C569.00,115.29 568.44,118.21 567.75,118.95C566.72,120.06 566.85,120.15 568.50,119.49C583.26,113.58 592.61,112.67 604.52,115.99C612.58,118.22 626.44,124.65 633.38,129.35C635.45,130.76 638.02,132.19 639.08,132.52C640.13,132.86 641.00,133.49 641.00,133.93C641.00,135.24 656.02,141.63 663.50,143.50C669.06,144.89 673.02,145.13 682.75,144.69C694.20,144.17 695.00,144.26 695.00,145.99C695.00,149.39 691.81,153.45 684.62,159.20C671.32,169.85 666.81,172.38 653.50,176.63C644.84,179.39 643.75,179.50 625.00,179.48C607.50,179.46 604.02,179.15 591.00,176.54C580.44,174.41 573.51,173.61 565.50,173.57C555.23,173.53 554.11,173.72 548.55,176.51C545.28,178.16 540.33,181.67 537.55,184.33C534.77,186.98 533.13,188.82 533.90,188.42C534.84,187.94 535.07,188.09 534.59,188.86C534.19,189.51 533.51,189.81 533.08,189.55C531.90,188.82 530.35,190.34 517.45,205.00C475.38,252.80 446.05,272.71 399.63,284.98C382.70,289.46 354.58,293.79 352.45,292.26C351.88,291.84 350.23,289.48 348.80,287.00C347.37,284.52 344.78,281.24 343.04,279.69C338.31,275.48 327.93,269.00 325.93,269.00C324.96,269.00 323.97,268.44 323.72,267.75C323.47,267.06 322.96,266.79 322.58,267.14C322.21,267.49 324.65,270.17 328.03,273.10C336.51,280.48 343.38,290.34 349.61,304.07C363.48,334.61 377.45,352.75 405.69,376.85C413.77,383.75 416.00,386.49 416.00,389.53C416.00,392.51 412.63,395.73 408.26,396.95C403.88,398.16 392.10,398.13 383.50,396.89Z M240.58,360.28C237.59,359.51 225.99,353.05 221.00,349.37C205.30,337.79 191.52,320.43 183.50,302.11C179.65,293.32 171.56,269.11 172.24,268.42C172.50,268.17 175.78,269.75 179.52,271.94C189.76,277.93 207.30,284.46 229.50,290.56C235.00,292.07 239.94,293.70 240.48,294.18C241.01,294.66 242.20,301.00 243.12,308.28C245.04,323.51 248.47,335.24 256.82,355.17C257.00,355.60 256.01,357.08 254.62,358.47C252.57,360.52 251.18,360.98 247.30,360.88C244.66,360.82 241.64,360.55 240.58,360.28Z M236.50,284.24C233.75,283.38 226.81,281.19 221.08,279.39C215.34,277.58 210.28,276.33 209.83,276.61C209.37,276.89 209.00,276.64 209.00,276.06C209.00,275.48 208.47,275.00 207.82,275.00C205.95,275.00 187.53,267.29 176.00,261.69C165.47,256.58 143.40,243.36 139.32,239.73C138.13,238.66 136.65,238.10 136.05,238.47C135.44,238.84 135.07,238.73 135.23,238.22C135.60,236.96 126.37,229.98 125.43,230.83C125.02,231.20 124.93,231.05 125.23,230.50C125.54,229.95 121.95,226.35 117.26,222.50C112.56,218.65 104.57,211.58 99.50,206.78C94.42,201.99 89.91,198.39 89.48,198.78C89.04,199.18 89.03,198.89 89.46,198.15C89.96,197.28 89.22,195.85 87.37,194.10C84.64,191.53 78.29,184.09 76.88,181.81C76.52,181.22 75.65,181.10 74.96,181.53C74.16,182.02 73.94,181.91 74.36,181.22C74.73,180.62 71.87,176.18 67.99,171.35C61.30,163.01 54.50,153.58 49.00,145.02C43.75,136.85 34.19,121.37 32.62,118.50C31.71,116.85 30.55,114.83 30.03,114.00C28.32,111.28 19.87,93.60 17.84,88.50C16.74,85.75 15.27,82.15 14.56,80.50C11.54,73.43 10.90,71.47 8.60,62.23C4.04,43.91 4.21,39.06 9.57,35.55C18.81,29.49 52.38,36.52 76.54,49.56C80.13,51.49 83.57,52.77 84.19,52.39C84.80,52.00 85.04,52.12 84.72,52.65C84.39,53.18 86.68,55.13 89.81,56.99C92.94,58.86 97.24,61.64 99.37,63.17C101.51,64.71 103.65,65.71 104.15,65.41C104.64,65.10 104.93,65.30 104.77,65.85C104.62,66.39 106.97,68.70 110.00,70.96C121.33,79.44 134.48,93.68 140.35,103.80C142.36,107.27 144.00,110.30 144.00,110.53C144.00,110.76 145.07,113.32 146.38,116.22C149.21,122.49 152.55,132.14 157.53,148.50C164.23,170.47 172.11,187.80 182.43,203.25C189.30,213.53 202.90,229.18 204.24,228.35C204.83,227.99 205.04,228.12 204.72,228.64C203.94,229.91 204.50,230.60 211.34,236.76C214.55,239.65 217.65,241.71 218.24,241.35C218.83,240.99 219.02,241.16 218.67,241.72C218.32,242.29 219.71,243.92 221.77,245.35C223.82,246.77 227.92,249.87 230.87,252.22L236.23,256.50L239.01,267.50C240.54,273.55 242.29,279.77 242.90,281.32C244.97,286.61 244.60,286.78 236.50,284.24Z M205.25,146.19C209.18,142.82 206.27,134.39 201.00,133.87C191.87,132.97 188.98,143.32 197.25,147.32C200.51,148.90 202.41,148.63 205.25,146.19Z" fill="#ffffff" fill-rule="evenodd"/>
  </g>
  <g fill="#ffffff" font-family="Georgia, 'Times New Roman', serif" text-anchor="middle">
    <text x="400.0" y="538.8505747126437" font-size="110" font-weight="700">NewWhale</text>
    <text x="400.0" y="653.8505747126437" font-size="110" font-weight="700">Career</text>
  </g>
</svg>
